<svg version="1" xmlns="http://www.w3.org/2000/svg" width="933.333" height="933.333" viewBox="0 0 700.000000 700.000000"><path d="M330.8 119.6c-.2.2-3.1.6-6.3.9-3.3.3-7.3.8-9 1.1-21.2 3.5-37.3 7.9-54.5 14.9-80.9 32.6-138.9 109.7-147.7 196.5-2 18.9-.5 51 3.2 70.5 2.9 15.5 11.5 40.4 19.6 57.1 16.1 33.1 35.3 56.6 68.7 84.6 3.2 2.7 21.7 15.1 27.2 18.2 5.8 3.4 25.5 12.9 30 14.5 1.9.7 4.4 1.7 5.5 2.2 2.9 1.2 20.5 6.9 22.9 7.3 1.2.2 3.9.9 6.1 1.4 3.5 1 12.7 2.7 20.5 3.8 1.4.2 4.1.6 6 .9 9 1.4 41 1.4 52.5 0 14.3-1.7 33.7-5.6 42-8.5 3.3-1.1 6.2-2.1 6.5-2.2.3 0 1.5-.4 2.8-.9 1.3-.5 2.9-.9 3.6-.9.7 0 1.6-.3 1.9-.7.4-.3 2.8-1.4 5.4-2.3 7.2-2.6 23.7-10.8 33.8-16.8 49.2-29.6 87-76.6 104.5-130.2 4.4-13.5 8.5-31.3 9.6-41.3.3-2.8.7-5.9 1-6.7 1-2.6 1.2-40.2.4-48-1.8-15.3-2-17-3.6-24.2-.8-4-1.7-8.2-2-9.3-2.4-11.5-10.4-33.4-16.9-46.8-33-67.9-93.2-115.1-166.5-130.7-5.2-1.1-11.9-2.3-14.9-2.6-3-.3-6.4-.8-7.5-1.1-2.3-.6-44.3-1.3-44.8-.7zM368 260.5c11 2 26.6 8.7 36.8 15.7 14.8 10.2 28.4 26.6 35.1 42.4 5.6 13.3 7.1 20 7.6 35.4.6 17.1-2.3 30.7-9.6 45.4-13.3 26.7-36.5 45.4-65.3 52.6-9.7 2.4-12.7 2.8-24.1 2.5-9.3-.1-15.3-.8-21.3-2.3-37.3-9.6-65.8-39.6-73.8-77.7-1.3-6.4-1.2-27.1.2-34.5 4.9-25.6 19.2-47.9 40.9-63.5 9-6.5 24-12.9 36.5-15.6 8.5-1.8 28.5-2 37-.4z"/></svg>